<?xml version="1.0" encoding="UTF-8"?>
<svg viewBox="0 0 481 162" version="1.1" xmlns="http://www.w3.org/2000/svg" xmlns:xlink="http://www.w3.org/1999/xlink">
    <!-- Generator: Sketch 45.1 (43504) - http://www.bohemiancoding.com/sketch -->
    <title>polyjuice</title>
    <desc>Created with Sketch.</desc>
    <g id="Page-1" stroke="none" stroke-width="1" fill="none">
        <path d="M3.51506628,138.918005 C2.01798026,130.716578 1.26944848,121.115844 1.26944848,110.115516 C1.26944848,106.926072 1.43217278,100.710004 1.75762626,91.4671248 C2.01798905,84.1118761 2.14816849,77.9283526 2.14816849,72.916369 C1.30198943,71.0287388 0.87890625,69.4991304 0.87890625,68.3274978 C2.24581088,66.0493235 2.92925294,59.8983449 2.92925294,49.8743776 C2.92925294,26.0511826 2.53871462,13.1308732 1.75762626,11.1130616 C2.9943495,7.79343606 3.9706953,6.13364819 4.68669296,6.13364819 L13.4738931,6.13364819 C14.9709791,6.13364819 17.0538501,6.83336268 19.7225687,8.23281266 C22.3912873,9.63226264 24.6694275,11.1130538 26.5570577,12.6752305 C29.8766832,15.6694025 31.5364711,23.5452587 31.5364711,36.3030352 C31.5364711,39.4273887 31.5039262,42.1774293 31.4388355,44.5532398 C31.3737448,46.9290502 31.2110205,49.3536423 30.9506577,51.8270887 C30.6902949,54.3005352 30.2672118,56.2857717 29.6813955,57.7828577 C29.0955792,59.2799437 28.1843231,61.0048213 26.9475999,62.9575422 C25.9061488,64.6499003 24.5880819,66.0818742 22.9933599,67.2535067 C21.3986378,68.4251393 19.3320392,69.6292991 16.793502,70.8660223 C14.3851462,72.0376548 11.6188331,73.1116352 8.49447968,74.0879957 L8.49447968,97.9110715 C8.49447968,102.207058 8.78738342,108.71603 9.37319969,117.438183 C9.89392526,126.681062 10.1542841,133.157489 10.1542841,136.867659 C10.1542841,139.276014 8.8850346,140.480174 6.34649743,140.480174 L3.51506628,138.918005 Z M15.2801509,65.7889734 C16.9399636,64.8126129 18.355665,63.5433634 19.5272976,61.9811866 C21.3498371,59.5077402 22.8143558,55.4721775 23.9208976,49.8743776 C24.5067139,46.5547521 24.8972522,42.0961062 25.0925243,36.4983063 L25.0925243,31.1283507 C25.0925243,28.7199949 25.0274346,26.7998482 24.8972532,25.3678529 C24.7670718,23.9358575 24.4741681,22.3737043 24.0185332,20.6813461 C23.4978076,18.8588066 22.8143656,17.3942879 21.9681865,16.2877461 C21.1220075,15.1812042 19.9178476,14.2374033 18.3556709,13.4563149 C16.7934942,12.6752266 14.9058923,12.2846883 12.6928086,12.2846883 C11.0004505,12.2846883 9.84510797,12.691499 9.22674635,13.5051327 C8.60838473,14.3187664 8.29920856,15.701923 8.29920856,17.6546439 C8.29920856,20.1931811 8.46193286,24.9772755 8.78738635,32.0070707 C9.11283983,39.1670474 9.27556413,43.9836867 9.27556413,46.4571331 C9.27556413,49.060761 9.14538469,52.2176124 8.8850219,55.9277821 C8.62465912,59.6379518 8.49447968,62.7622584 8.49447968,65.3007956 L9.76374191,67.2535067 C11.7815535,67.2535067 13.6203381,66.7653338 15.2801509,65.7889734 Z M50.5754046,66.6676934 L50.5754046,59.7355688 C50.5754046,22.5687811 55.3920439,3.98566594 65.025467,3.98566594 C65.676374,3.98566594 66.5876301,4.14839024 67.7592626,4.47384372 C70.5581626,5.45020417 73.2919308,6.1661911 75.9606494,6.62182597 C78.6293679,7.07746085 80.0938867,7.33781973 80.3542494,7.40291043 C82.9578773,7.8585453 85.4963764,10.4295893 87.9698229,15.1161194 C90.7687228,19.932831 92.8678663,26.213989 94.2673163,33.9597819 C95.6667663,41.7055748 96.3664807,49.8092449 96.3664807,58.2710355 L95.9759385,59.2473911 L96.3664807,83.0704669 C96.3664807,85.8693669 96.3339359,88.7170421 96.2688452,91.6135781 C96.2037545,94.5101141 96.0084853,97.7808726 95.6830318,101.425952 C95.2924877,105.721938 94.7880423,109.513414 94.1696807,112.800494 C93.5513191,116.087574 92.7214252,119.423422 91.679974,122.808138 C90.5083415,126.453218 89.1577298,129.496162 87.6280984,131.937063 C86.098467,134.377964 84.1945927,136.346928 81.9164183,137.844014 C79.638244,139.471282 77.0021103,140.284903 74.0079383,140.284903 C58.3861711,140.284903 50.5754046,115.746079 50.5754046,66.6676934 Z M80.0613428,131.595339 C82.0791544,129.642618 83.6738525,126.908849 84.845485,123.393952 C87.3189315,116.103794 88.8485399,108.520841 89.4343562,100.644867 C89.9550818,93.810344 90.2154407,87.4315514 90.2154407,81.508298 C90.2154407,76.6915864 89.8574472,68.8157303 89.1414495,57.8804933 C88.3603612,47.4008911 87.9698229,39.525035 87.9698229,34.2526885 L87.1887384,32.6905196 L87.5792806,31.7141641 C87.5792806,27.873813 86.8307489,24.3101508 85.3336628,21.0230706 C83.8365768,17.7359904 81.8025231,15.0998567 79.2314405,13.1145905 C76.660358,11.1293242 73.8452276,10.136706 70.7859649,10.136706 C64.6674394,10.136706 61.0549599,13.0657434 59.9484181,18.9239061 C59.4276925,21.7878968 59.1347888,24.6518445 59.0696981,27.5158351 C59.0696981,28.1667421 59.0534256,29.9892542 59.0208803,32.9834263 C58.9883349,35.9775983 58.8581555,38.7764563 58.6303381,41.3800842 C58.4025206,43.983712 58.1258893,46.0991279 57.8004358,47.7263954 C57.8004358,49.2885721 57.6377115,52.4128787 57.312258,57.0994088 C56.9868046,61.785939 56.8240803,64.9102455 56.8240803,66.4724223 L57.2146225,82.2893824 C57.2146225,88.1475451 57.7678851,95.3725041 58.874427,103.964476 C59.6555153,109.887729 60.5993163,114.91591 61.7058581,119.04917 C62.8123999,123.182429 64.3094635,126.746091 66.1970937,129.740263 C68.2149053,132.929707 70.5581352,134.524405 73.2268538,134.524405 C75.765391,134.524405 78.0435312,133.54806 80.0613428,131.595339 Z M122.728081,134.524405 C122.988444,133.417863 123.118623,131.204813 123.118623,127.885187 C123.118623,115.583046 123.313892,97.390469 123.704437,73.3069112 C124.094981,49.2884442 124.29025,31.9420337 124.29025,21.2671595 C124.29025,20.7464339 124.452974,18.3706591 124.778428,14.1397638 L125.266606,8.08635932 C125.266606,7.17508957 125.754778,6.71946153 126.731139,6.71946153 C127.382046,6.71946153 128.325847,6.94727555 129.56257,7.40291043 C129.888024,7.53309182 130.050748,7.56563668 130.050748,7.50054598 C130.050748,10.4296273 130.018203,13.065761 129.953112,15.4090261 C129.888022,17.7522912 129.855477,20.3884248 129.855477,23.3175062 C129.855477,31.3887526 129.888022,38.6462564 129.953112,45.0902353 C130.018203,51.5342143 130.050748,58.7917181 130.050748,66.8629645 L129.757841,75.4548935 C129.562569,79.425426 129.464934,82.1591942 129.464934,83.6562802 L129.855477,100.644867 L129.269663,102.304672 L129.464934,102.1094 C129.464934,102.434854 129.43239,102.695213 129.367299,102.890485 C129.302208,103.085757 129.269663,103.346116 129.269663,103.671569 C129.269663,104.778111 129.464933,105.721912 129.855477,106.503001 L129.269663,125.63957 L129.269663,126.908832 C129.269663,128.796462 129.334753,130.130801 129.464934,130.91189 C129.530025,131.562797 129.855474,131.888245 130.44129,131.888245 C132.394011,131.888245 135.843766,131.98588 140.790659,132.181152 L149.284953,132.474059 L149.870766,132.474059 C150.586764,132.474059 151.270206,132.848325 151.921113,133.596868 C152.572019,134.345411 152.897468,135.110215 152.897468,135.891303 C152.897468,137.388389 151.823488,138.234555 149.675495,138.429828 C145.119146,138.299646 139.58652,138.234556 133.07745,138.234556 L133.467992,138.429828 C132.686904,138.429828 131.450199,138.527462 129.757841,138.722734 C128.260755,138.983097 127.02405,139.113276 126.04769,139.113276 C124.16006,139.113276 123.053535,137.583668 122.728081,134.524405 Z M183.750304,138.722734 C183.099397,138.202009 182.676314,137.713836 182.481042,137.258201 C183.782856,133.938575 184.433753,122.287515 184.433753,102.304672 C184.433753,97.9435949 184.205939,92.3784238 183.750304,85.6089914 L182.871584,71.4518357 L181.602322,68.9133112 L182.188135,66.4724223 C181.472137,64.5847921 180.28425,61.4604855 178.624437,57.0994088 C176.964625,52.7383321 175.321109,48.2796863 173.693842,43.7233375 L171.545859,37.7675686 C171.025134,36.3355732 169.902336,33.1787218 168.177433,28.2969196 C166.452529,23.4151173 165.167007,19.4446444 164.320828,16.3853816 C163.344468,13.0657561 162.791205,10.5598019 162.661024,8.86744378 L165.394819,6.71946153 C166.696633,6.91473362 168.649325,11.1455654 171.252953,19.4120839 C173.010402,24.9447931 175.093273,31.714124 177.501628,39.7202797 L178.966162,44.4067864 C181.439608,52.6733049 183.197031,56.9692264 184.238482,57.2946799 L185.019566,53.6821643 L184.629024,52.7058088 C185.540294,51.5992669 186.842088,46.8477173 188.534446,38.4510175 C190.161714,29.8590455 191.854046,21.9831894 193.611495,14.8232127 C195.499125,7.40287333 197.224003,3.69275927 198.78618,3.69275927 C199.437087,3.69275927 200.039167,3.88802843 200.592438,4.27857261 C201.145708,4.66911679 201.42234,5.15728969 201.42234,5.74310596 C201.42234,7.76091756 199.567283,14.9207868 195.857113,27.2229284 L195.2713,29.3709107 C194.229849,32.950899 193.334865,36.0752056 192.586322,38.7439241 C191.837779,41.4126427 191.10552,44.374225 190.389522,47.6287598 C188.827345,54.1378295 188.046269,60.2237183 188.046269,65.8866089 C188.697175,67.4487856 189.022624,68.5878557 189.022624,69.3038534 C189.022624,69.9547604 188.827355,70.8660165 188.436811,72.037649 C188.046267,73.2743722 187.850997,74.2832629 187.850997,75.0643513 C187.850997,76.8218001 188.111356,79.8484721 188.632082,84.144458 C189.152807,88.440444 189.413166,91.4996609 189.413166,93.3222004 C189.413166,99.1803631 189.445711,104.45263 189.510802,109.139161 C189.575893,113.825691 189.608437,119.130503 189.608437,125.053756 L189.608437,125.932476 C189.608437,134.980083 188.209008,139.503819 185.410108,139.503819 C184.954474,139.503819 184.401211,139.24346 183.750304,138.722734 Z M212.8457,156.492406 L212.650429,155.711321 C212.650429,155.190596 213.756954,154.21425 215.970038,152.782254 L218.703833,150.927179 L223.195069,147.998112 C225.863788,146.240663 227.393396,145.134138 227.78394,144.678503 C229.801752,142.400329 231.380177,138.852939 232.519265,134.036228 C233.658352,129.219516 234.227887,124.435422 234.227887,119.683801 C234.227887,107.902385 233.934983,90.1979807 233.349167,66.5700578 C232.69826,44.0486768 232.372811,26.3442729 232.372811,13.4563149 L231.201185,11.3083327 C230.680459,11.0479699 229.085761,10.7225213 226.417042,10.3319771 C223.943596,10.0716143 221.665456,9.55089658 219.582553,8.76980822 C217.629832,8.05381056 216.653487,7.17509934 216.653487,6.13364819 C216.653487,5.61292262 217.190477,5.07593242 218.264473,4.5226615 C219.33847,3.96939058 220.200909,3.69275927 220.851816,3.69275927 C223.455443,3.69275927 227.507279,4.16465974 233.007442,5.10847484 C238.507606,6.05228994 243.42188,7.17508762 247.750411,8.47690155 C252.078943,9.77871548 254.243176,10.9828753 254.243176,12.0894172 C254.243176,12.8705055 253.917727,13.5051303 253.26682,13.9933105 C252.615913,14.4814907 251.867382,14.7255772 251.021203,14.7255772 C249.84957,14.7255772 248.027058,14.3675837 245.553611,13.6515861 C243.340528,13.0006791 241.55056,12.6752305 240.183656,12.6752305 C239.012023,12.6752305 238.426216,14.0095698 238.426216,16.6782883 C238.426216,26.832437 238.751664,40.6965474 239.402571,58.2710355 C240.053478,75.8455236 240.378927,89.6445443 240.378927,99.6685116 L240.378927,121.636512 C239.597839,123.393961 239.2073,126.192819 239.2073,130.03317 C239.2073,132.766979 238.784217,135.809923 237.938038,139.162094 C237.091859,142.514265 235.887699,145.850113 234.325522,149.169739 C232.698255,152.684636 230.501477,155.548584 227.735122,157.761668 C224.968768,159.974751 221.990913,161.081277 218.801469,161.081277 L217.434571,161.081277 L212.8457,156.492406 Z M287.536901,137.355836 C285.063454,135.988932 283.045673,134.361689 281.483496,132.474059 C279.660957,130.130794 278.196438,123.394007 277.089896,112.263498 C275.983354,101.132989 275.332457,88.4730387 275.137185,74.2832668 L275.03955,67.8393201 C274.779187,50.0044692 274.5351,36.4007176 274.307283,27.0276573 C274.079465,17.654597 273.737744,11.2107147 273.28211,7.6958171 L274.551372,4.86438595 C277.610635,5.25493013 279.140243,8.93249933 279.140243,15.8972039 L279.726056,68.9133112 C279.726056,73.1442065 280.08405,80.2064411 280.800047,90.100227 C281.516045,99.9940129 281.874039,107.056248 281.874039,111.287143 C281.874039,126.453275 286.885947,134.036228 296.909914,134.036228 C303.09353,134.036228 306.998914,120.074483 308.626181,92.1505737 L308.919088,88.0498803 C309.830358,55.4394413 310.285986,28.3295728 310.285986,6.71946153 L310.090714,4.86438595 L309.895443,3.10694593 C309.895443,1.60985991 311.034513,0.861328125 313.312688,0.861328125 C314.874865,0.861328125 315.85121,1.28441131 316.241755,2.13059036 C316.567208,3.10695081 316.729932,5.41763588 316.729932,9.06271489 C316.729932,19.4772263 316.306849,26.2791021 315.46067,29.4685463 C315.590851,29.8590904 315.655941,30.2821736 315.655941,30.7378085 C315.655941,32.0396224 315.493217,34.708301 315.167763,38.7439241 C314.84231,42.7795473 314.679586,45.415681 314.679586,46.6524042 C314.679586,47.3684019 314.71213,48.0192991 314.777221,48.6051154 C314.842312,49.1909316 314.874857,49.8743737 314.874857,50.6554621 C314.679585,53.1289085 314.51686,57.685189 314.386679,64.32444 C314.191407,77.40767 313.898503,88.4078328 313.507959,97.3252582 C313.052324,108.846311 311.457626,118.642314 308.723817,126.713561 C307.356912,130.814275 305.453038,133.971126 303.012137,136.18421 C300.571235,138.397293 297.72356,139.503819 294.469025,139.503819 C292.321032,139.438728 290.010347,138.722741 287.536901,137.355836 Z M352.171639,134.524405 C351.520732,134.524405 350.96747,134.55695 350.511835,134.622041 C349.991109,134.687132 349.437847,134.719676 348.85203,134.719676 C345.98804,134.719676 344.165528,134.036234 343.384439,132.66933 C343.384439,132.148604 343.482074,131.725521 343.677346,131.400067 C343.872618,131.074614 344.263156,130.716621 344.848973,130.326076 L346.020599,129.252085 L351.781097,129.252085 L352.562182,128.471001 C352.562182,128.210638 352.692361,127.592286 352.952724,126.615925 C353.147996,125.509383 353.245631,124.728307 353.245631,124.272672 C353.245631,118.739963 353.017817,111.449914 352.562182,102.402307 C352.041456,92.1179771 351.781097,84.8279284 351.781097,80.5319424 C351.781097,76.4963192 351.943821,68.6855528 352.269275,57.0994088 C352.594728,45.5783555 352.757453,37.8326788 352.757453,33.8621463 C352.757453,24.489086 352.432004,16.7759541 351.781097,10.7225194 C350.544374,10.3319752 348.559137,10.136706 345.825328,10.136706 L343.482075,10.3319771 L341.041186,10.5272482 C338.502649,10.5272482 337.233399,9.38817814 337.233399,7.11000376 C337.233399,6.58927818 337.819207,6.05228799 338.990839,5.49901707 C340.162472,4.94574615 341.171362,4.66911484 342.017542,4.66911484 C346.378618,4.66911484 351.423072,4.92947372 357.151053,5.45019929 C360.60086,5.71056208 363.660077,6.32891442 366.328795,7.30527487 C368.67206,8.15145393 369.843675,9.29052403 369.843675,10.7225194 C369.843675,10.9828821 369.680951,11.5035999 369.355497,12.2846883 L364.766626,12.6752305 C363.725175,11.8941421 361.805028,11.5036038 359.006128,11.5036038 L358.029773,12.0894172 C358.420317,13.2610497 358.615586,16.8084394 358.615586,22.7316928 C358.615586,28.0040393 358.517952,35.9124403 358.322679,46.4571331 C358.127407,57.0669167 358.029773,65.0078625 358.029773,70.280209 C358.029773,75.8129182 358.257587,83.1029669 358.713222,92.1505737 C359.168857,101.263271 359.396671,108.585865 359.396671,114.118574 L359.299035,116.657098 C359.233944,117.633459 359.2014,118.837619 359.2014,120.269614 C359.2014,123.393967 359.396669,125.249024 359.787213,125.834841 L359.591942,126.323019 C359.591942,127.624832 361.05646,128.27573 363.985542,128.27573 C365.092084,128.27573 366.068429,128.243185 366.914608,128.178094 C367.760788,128.113003 368.737133,128.080459 369.843675,128.080459 C373.814208,128.080459 375.799444,129.02426 375.799444,130.91189 C375.799444,132.083522 375.376361,133.043596 374.530182,133.792139 C373.684003,134.540682 372.642567,134.914948 371.405844,134.914948 C370.494574,134.914948 369.388049,134.784768 368.086235,134.524405 C366.65424,134.329133 365.547715,134.231499 364.766626,134.231499 C363.855356,134.231499 362.618652,134.589492 361.056475,135.30549 C359.62448,136.086578 358.48541,136.477116 357.639231,136.477116 C354.514877,136.477116 352.692365,135.826219 352.171639,134.524405 Z M408.995533,137.94165 C406.456996,137.160561 404.276491,136.021491 402.453951,134.524405 C400.631412,133.027319 398.906534,130.781724 397.279267,127.787552 C394.545457,122.580296 392.88567,114.964799 392.299853,104.940832 C392.03949,101.881569 391.909311,97.8785511 391.909311,92.9316581 L391.909311,70.0849379 C391.909311,64.8776821 391.958128,60.7933022 392.055764,57.8316755 C392.1534,54.8700488 392.397487,50.5903997 392.788031,44.9925998 C393.178575,38.8740743 393.780655,33.7645313 394.594289,29.6638174 C395.407923,25.5631035 396.6609,21.4624511 398.353258,17.3617372 C400.045616,13.1308419 402.095942,10.1041699 404.504298,8.28163044 C405.741021,7.37036068 407.563533,6.42655974 409.971889,5.45019929 C412.054791,4.66911093 413.714579,3.95312401 414.951302,3.30221704 L422.957418,3.30221704 L423.543231,3.3998526 C423.673413,3.4649433 423.836137,3.49748816 424.031409,3.49748816 C424.617225,3.69276025 424.975219,3.79039483 425.1054,3.79039483 C425.626126,4.05075761 425.91903,4.21348191 425.98412,4.27857261 C426.309574,4.60402609 426.504843,4.86438498 426.569934,5.05965706 C426.700115,5.58038264 426.765205,6.00346582 426.765205,6.3289193 L424.129045,9.257986 L415.732387,9.257986 C413.128759,9.257986 410.818074,10.4784183 408.800262,12.9193194 C406.782451,15.3602205 405.187753,18.4682546 404.01612,22.2435151 C403.03976,25.4980499 402.209866,29.4034331 401.526413,33.9597819 C400.842961,38.5161306 400.403605,42.5191484 400.208333,45.9689553 C400.013061,49.0933088 399.915427,51.9898013 399.915427,54.6585199 L399.524884,55.732511 C399.524884,61.2001295 399.394705,67.9369156 399.134342,75.9430713 C398.873979,83.9492269 398.7438,90.6534681 398.7438,96.055996 C398.7438,99.1803494 398.825162,101.914118 398.987889,104.257383 C399.150616,106.600648 399.427247,109.269326 399.817791,112.263498 C400.208335,115.19258 400.891777,117.779896 401.868138,120.025525 C402.844498,122.271154 404.113748,124.500477 405.675925,126.713561 C407.173011,128.796463 409.125702,130.374889 411.534058,131.448885 C413.942414,132.522882 416.741272,133.059872 419.930716,133.059872 C421.883437,133.059872 423.543225,132.474064 424.910129,131.302432 C426.927941,131.302432 427.936831,132.018419 427.936831,133.450414 C427.936831,134.426775 427.090665,135.549572 425.398307,136.818841 C423.705949,138.088109 422.013616,139.048183 420.321258,139.69909 L413.68204,139.69909 C412.835861,139.178364 411.273708,138.592557 408.995533,137.94165 Z M450.881187,134.914948 C450.881187,134.003678 450.913732,133.157511 450.978823,132.376423 C451.043914,131.595335 451.076458,130.749168 451.076458,129.837899 L450.393009,129.056814 C451.36937,126.388096 451.857543,123.654327 451.857543,120.855427 C451.857543,118.577253 451.694819,114.183697 451.369365,107.674627 C451.043912,101.165558 450.881187,96.7720014 450.881187,94.493827 C450.881187,86.9433062 451.109001,76.9194893 451.564636,64.4220756 C452.020271,51.9246618 452.248085,41.8683 452.248085,34.2526885 C452.248085,30.9981537 452.117906,26.9951359 451.857543,22.2435151 C451.59718,17.5569849 451.467001,13.586512 451.467001,10.3319771 C451.467001,8.37925623 451.906356,6.94728239 452.785081,6.03601263 C453.663805,5.12474288 455.144596,4.66911484 457.227498,4.66911484 C458.724584,4.66911484 459.798565,5.09219802 460.449472,5.93837708 C461.295651,6.13364917 463.248343,6.39400805 466.307605,6.71946153 C469.627231,7.11000571 472.523723,7.69581319 474.99717,8.47690155 C477.470616,9.25798991 478.707321,10.2668806 478.707321,11.5036038 C478.707321,12.740327 477.470616,14.0746663 474.99717,15.5066616 C467.707012,13.0983059 462.304565,11.8290563 458.789667,11.6988749 L457.813312,12.8705016 C457.943493,15.3439481 458.008583,18.2078958 458.008583,21.4624306 C458.008583,25.6282352 457.878403,30.8028679 457.618041,36.9864841 C457.357678,43.1701003 457.227498,48.3447331 457.227498,52.5105376 C457.227498,56.2207073 458.171299,58.0757644 460.05893,58.0757644 L463.378539,57.8804933 C465.331259,57.7503119 466.47033,57.6852222 466.795783,57.6852222 C471.937948,57.6852222 474.541537,58.889382 474.606628,61.2977377 C474.606628,62.7297331 474.248634,63.9501653 473.532636,64.9590711 C472.816639,65.9679769 471.840293,66.4724223 470.60357,66.4724223 C468.390486,66.4724223 466.860878,65.9517045 466.014699,64.9102533 L459.473116,63.9338978 L458.594396,63.9338978 L457.618041,64.9102533 L457.618041,65.4960667 C457.878403,68.5553294 458.008583,73.8275968 458.008583,81.3130269 L457.813312,95.4701826 L457.618041,109.724974 C457.618041,114.93223 457.81331,120.237042 458.203854,125.63957 C458.399126,128.698832 459.082568,130.732886 460.254201,131.741792 C461.425833,132.750698 463.606339,133.255143 466.795783,133.255143 L470.408299,133.059872 L474.216085,132.864601 C478.121527,132.864601 480.074219,133.743312 480.074219,135.500761 C480.074219,137.909117 477.177726,139.113276 471.384654,139.113276 L454.884245,139.113276 C452.410799,139.113276 451.076459,137.713847 450.881187,134.914948 Z" id="polyjuice" fill="#000000"></path>
    </g>
</svg>
